<?xml version="1.0" encoding="UTF-8"?>
<svg xmlns="http://www.w3.org/2000/svg" viewBox="0 0 381 72" width="381" height="72" role="img" aria-label="BRAINBASE">
  <g fill="#F5F7FA">
    <path d="M40.18 54L24.51 54L24.51 13.26L39.52 13.26Q43.87 13.26 46.71 14.68Q49.56 16.10 50.95 18.52Q52.35 20.94 52.35 23.95L52.35 23.95Q52.35 26.49 51.42 28.23Q50.49 29.96 48.92 31.02Q47.34 32.07 45.46 32.56L45.46 32.56L45.46 32.97Q47.51 33.05 49.45 34.27Q51.39 35.49 52.66 37.69Q53.93 39.89 53.93 43.04L53.93 43.04Q53.93 46.13 52.47 48.61Q51.01 51.10 47.97 52.55Q44.94 54 40.18 54L40.18 54ZM30.75 35.71L30.75 48.64L39.55 48.64Q43.93 48.64 45.84 46.95Q47.75 45.25 47.75 42.73L47.75 42.73Q47.75 40.77 46.78 39.18Q45.81 37.59 44.04 36.65Q42.26 35.71 39.80 35.71L39.80 35.71L30.75 35.71ZM30.75 18.59L30.75 30.89L38.92 30.89Q40.97 30.89 42.64 30.10Q44.31 29.31 45.27 27.86Q46.22 26.41 46.22 24.47L46.22 24.47Q46.22 21.95 44.47 20.27Q42.72 18.59 39.09 18.59L39.09 18.59L30.75 18.59Z"/>
    <path d="M70.52 54L64.29 54L64.29 13.26L78.89 13.26Q83.59 13.26 86.74 14.88Q89.88 16.51 91.44 19.41Q93 22.31 93 26.05L93 26.05Q93 29.83 91.43 32.66Q89.86 35.49 86.71 37.05L86.71 37.05Q86.16 37.32 85.56 37.54L85.56 37.54L94.53 54L87.45 54L79.19 38.61Q79.03 38.61 78.84 38.61L78.84 38.61L70.52 38.61L70.52 54ZM70.52 18.59L70.52 33.27L78.23 33.27Q81.24 33.27 83.09 32.41Q84.93 31.55 85.81 29.94Q86.68 28.32 86.68 26.05L86.68 26.05Q86.68 23.76 85.81 22.09Q84.93 20.42 83.07 19.51Q81.21 18.59 78.18 18.59L78.18 18.59L70.52 18.59Z"/>
    <path d="M146.28 13.26L152.51 13.26L152.51 54L146.28 54L146.28 13.26Z"/>
    <path d="M170.85 54L164.54 54L164.54 13.26L171.73 13.26L187.07 37.51Q187.83 38.71 188.79 40.38Q189.75 42.05 190.81 44.13L190.81 44.13Q191.39 45.25 191.93 46.48L191.93 46.48Q191.85 45.28 191.80 44.07L191.80 44.07Q191.66 41.80 191.61 39.81Q191.55 37.81 191.55 36.45L191.55 36.45L191.55 13.26L197.87 13.26L197.87 54L190.65 54L176.89 32.32Q175.80 30.54 174.75 28.73Q173.70 26.93 172.44 24.55L172.44 24.55Q171.54 22.94 170.39 20.80L170.39 20.80Q170.50 22.69 170.58 24.41L170.58 24.41Q170.71 27.04 170.78 29.05Q170.85 31.06 170.85 32.26L170.85 32.26L170.85 54Z"/>
    <path d="M225.56 54L209.89 54L209.89 13.26L224.90 13.26Q229.25 13.26 232.09 14.68Q234.94 16.10 236.33 18.52Q237.73 20.94 237.73 23.95L237.73 23.95Q237.73 26.49 236.80 28.23Q235.87 29.96 234.29 31.02Q232.72 32.07 230.84 32.56L230.84 32.56L230.84 32.97Q232.89 33.05 234.83 34.27Q236.77 35.49 238.04 37.69Q239.31 39.89 239.31 43.04L239.31 43.04Q239.31 46.13 237.85 48.61Q236.39 51.10 233.35 52.55Q230.32 54 225.56 54L225.56 54ZM216.13 35.71L216.13 48.64L224.93 48.64Q229.30 48.64 231.22 46.95Q233.13 45.25 233.13 42.73L233.13 42.73Q233.13 40.77 232.16 39.18Q231.19 37.59 229.41 36.65Q227.64 35.71 225.18 35.71L225.18 35.71L216.13 35.71ZM216.13 18.59L216.13 30.89L224.30 30.89Q226.35 30.89 228.02 30.10Q229.69 29.31 230.64 27.86Q231.60 26.41 231.60 24.47L231.60 24.47Q231.60 21.95 229.85 20.27Q228.10 18.59 224.46 18.59L224.46 18.59L216.13 18.59Z"/>
    <path d="M253.30 54L246.55 54L261.04 13.26L268.70 13.26L283.46 54L276.71 54L272.96 43.25L256.94 43.25L253.30 54ZM258.72 38.06L271.13 38.06L268.78 31.33Q267.85 28.57 266.76 24.82L266.76 24.82Q265.88 21.93 264.84 18.15L264.84 18.15Q263.80 21.98 262.96 24.91L262.96 24.91Q261.84 28.71 260.99 31.33L260.99 31.33L258.72 38.06Z"/>
    <path d="M306.04 54.68L306.04 54.68Q301.48 54.68 298.11 53.23Q294.75 51.79 292.85 49.09Q290.95 46.40 290.76 42.68L290.76 42.68L297.02 42.68Q297.21 44.89 298.46 46.34Q299.70 47.79 301.70 48.50Q303.69 49.21 306.02 49.21L306.02 49.21Q308.61 49.21 310.62 48.41Q312.63 47.60 313.81 46.11Q314.98 44.62 314.98 42.65L314.98 42.65Q314.98 40.88 313.96 39.74Q312.93 38.61 311.20 37.85Q309.46 37.10 307.25 36.53L307.25 36.53L302.49 35.21Q297.48 33.88 294.68 31.25Q291.88 28.63 291.88 24.44L291.88 24.44Q291.88 20.91 293.78 18.28Q295.68 15.64 298.95 14.17Q302.21 12.71 306.32 12.71L306.32 12.71Q310.50 12.71 313.69 14.17Q316.87 15.64 318.69 18.18Q320.51 20.72 320.59 23.98L320.59 23.98L314.52 23.98Q314.22 21.19 311.94 19.66Q309.65 18.13 306.18 18.13L306.18 18.13Q303.72 18.13 301.90 18.89Q300.08 19.66 299.08 21.01Q298.09 22.36 298.09 24.09L298.09 24.09Q298.09 26.03 299.28 27.22Q300.46 28.41 302.17 29.10Q303.88 29.80 305.44 30.21L305.44 30.21L309.41 31.25Q311.35 31.74 313.41 32.58Q315.48 33.41 317.23 34.74Q318.98 36.06 320.06 38.02Q321.14 39.97 321.14 42.73L321.14 42.73Q321.14 46.18 319.36 48.89Q317.58 51.59 314.21 53.14Q310.83 54.68 306.04 54.68Z"/>
    <path d="M357.36 54L331.55 54L331.55 13.26L357.20 13.26L357.20 18.62L337.78 18.62L337.78 30.76L355.80 30.76L355.80 36.09L337.78 36.09L337.78 48.64L357.36 48.64L357.36 54Z"/>
  </g>
  <path d="M 99,54 L 119,8 L 139,54"
        fill="none" stroke="#A78BFA" stroke-width="8"
        stroke-linecap="round" stroke-linejoin="round"/>
</svg>