<?xml version="1.0" encoding="UTF-8"?>
<svg xmlns="http://www.w3.org/2000/svg" viewBox="0 0 211 62" width="211" height="62" role="img" aria-label="HLNA — Hyper Learning Neural Agent">
  <defs>
    <linearGradient id="lg" gradientUnits="userSpaceOnUse" x1="172" y1="48" x2="172" y2="7">
      <stop offset="0%" stop-color="#6D28D9"/>
      <stop offset="100%" stop-color="#C084FC"/>
    </linearGradient>
  </defs>
  <g fill="#0F0F0F">
    <path d="M28.59 48L21.81 48L21.81 10.17L28.59 10.17L28.59 25.81L46.18 25.81L46.18 10.17L52.96 10.17L52.96 48L46.18 48L46.18 31.52L28.59 31.52L28.59 48Z"/>
    <path d="M93.07 48L69.58 48L69.58 10.17L76.36 10.17L76.36 42.29L93.07 42.29L93.07 48Z"/>
    <path d="M114.89 48L107.98 48L107.98 10.17L115.65 10.17L128.73 31.01Q129.54 32.31 130.45 33.95Q131.37 35.58 132.36 37.59L132.36 37.59Q132.87 38.66 133.37 39.80L133.37 39.80Q133.30 38.76 133.25 37.69L133.25 37.69Q133.09 35.46 133.03 33.44Q132.97 31.42 132.97 30.02L132.97 30.02L132.97 10.17L139.85 10.17L139.85 48L132.15 48L120.35 29.24Q119.23 27.43 118.24 25.68Q117.25 23.93 116.11 21.72L116.11 21.72Q115.37 20.27 114.41 18.47L114.41 18.47Q114.51 20.10 114.58 21.62L114.58 21.62Q114.71 24.11 114.80 26.06Q114.89 28.02 114.89 29.21L114.89 29.21L114.89 48Z"/>
  </g>
  <path d="M 153,48 L 172,7 L 191,48"
        fill="none" stroke="url(#lg)" stroke-width="8"
        stroke-linecap="round" stroke-linejoin="round"/>
</svg>