<?xml version="1.0" encoding="UTF-8"?><svg id="Layer_2" xmlns="http://www.w3.org/2000/svg" viewBox="0 0 360.9 210.64"><defs><style>.cls-1{fill:#77aa2d;}.cls-2{fill:#1b2a49;}.cls-3{fill:none;}.cls-4{fill:#8dc133;}</style></defs><g id="Layer_1-2"><path class="cls-1" d="M266.3,24.28c-16.51-1.63-33.31-.86-49.59,2.14,0,0-4.11.81-4.11.81-1.32.32-4.82,1.14-6.12,1.46-1.38.39-4.66,1.34-6.06,1.74,1.35-.57,4.52-1.9,5.81-2.44,2.93-1.11,6.93-2.56,9.96-3.48,10.82-3.4,21.99-5.64,33.29-6.97,7.02-.8,15.28-1.09,22.37-.88,0,0-2.83,7.9-2.83,7.9l-2.73-.28h0Z"/><path class="cls-1" d="M253.81,51.14c-18.76-1.18-37.68.43-56.05,4.19-1.6.37-5.59,1.31-7.22,1.7-2.7.77-6.88,1.85-9.51,2.78,0,0,.16-.69.16-.69,1.57-.74.37-.2,1.87-.9,3.41-1.45,8.07-3.33,11.6-4.56,12.62-4.5,25.71-7.65,38.99-9.72,8.26-1.26,16.72-2.18,25.11-2.25,0,0-.21,9.91-.21,9.91l-4.75-.45h0Z"/><path class="cls-1" d="M257.9,75.53c-17.39-2.45-35.21-2.15-52.49.7-1.3.26-4.74.91-6.03,1.18-1.36.33-4.6,1.12-5.98,1.45,1.34-.51,4.49-1.67,5.77-2.15,2.91-.97,6.86-2.21,9.86-2.99,10.69-2.88,21.68-4.61,32.75-5.45,6.88-.5,13.91-.69,20.82-.21,0,0-.83,8.14-.83,8.14l-3.88-.68h0Z"/><path class="cls-2" d="M328.35,5.62c-5.01-2.14-10.17-3.46-15.33-4.03-.23-.09-.48-.15-.76-.2-6.72-.86-13.49-1.2-20.24-1.35-15.05-.28-30.14.93-44.89,3.77-1.63.36-5.76,1.26-7.3,1.62-1.6.44-5.53,1.48-7.2,1.94,2.86-.51,6.92-1.37,9.79-1.72l4.91-.68s4.94-.49,4.94-.49c1.22-.14,3.72-.33,4.94-.39,10.55-.64,21.17-.55,31.72.34-13.24,4.74-24.5,14.62-30.43,28.35-9.31,21.59-2.61,46.13,14.81,60.74-.83-.13-1.66-.26-2.49-.38-14.91-2.08-30.04-2.69-45.02-1.63-1.66.16-5.87.56-7.44.73-1.64.24-5.66.81-7.38,1.06,2.9-.16,7.03-.53,9.92-.53l4.96-.09,4.96.11c1.23,0,3.73.11,4.95.21,18.01,1.06,36.48,4.28,53.67,9.85.01,0,.02,0,.03,0,.97.36,1.95.69,2.93.99,11.57,3.53,23.89,3.11,35.25-1.31,13.19-5.13,23.51-15.03,29.05-27.88,11.44-26.52-1.28-57.49-28.35-69.04ZM350.86,72.17c-4.88,11.32-13.97,20.05-25.6,24.57-11.62,4.52-24.39,4.3-35.95-.63-23.86-10.17-35.06-37.46-24.98-60.84,9.41-21.81,34.07-32.62,56.71-25.7,1.62.5,3.24,1.08,4.83,1.76,23.86,10.17,35.06,37.46,24.98,60.84Z"/><path class="cls-4" d="M290.13,39.1c2.58,12.46,6.88,25.42,17.96,32.82,5.07,3.39,10.9,5.07,16.89,3.98,10.02-1.83,17.82-9.23,20.26-19,2.3-9.21,2.43-18.19-2.69-26.25-3.44-5.42-6.59-9.01-14.76-14.42-16.79-8.72-37.67-5.09-50.19,9.08,8.99.05,11.27,6.03,12.53,13.81Z"/><path class="cls-4" d="M295.87,67.9c-5.9-8.45-8.21-18.13-10.21-28.04-.95-4.68-2.9-8.26-7.64-8.48-1.74-.08-4.38.86-5.65,2.88-8.43,13.5-7.48,30.75,1.67,43.87,10.61,15.2,30.19,21.45,47.65,15.49,18.89-6.45,30.62-25.59,26.63-45.22-.33,3.6-.17,6.68-.78,10.05-1.75,9.69-7.92,17.77-17.04,21.69-13.2,5.67-26.7-.89-34.63-12.25Z"/><path class="cls-4" d="M77.55,209.28c-1.5-.91-2.62-2.14-3.34-3.7-.72-1.56-1.09-3.3-1.09-5.23,0-2.72.59-5.28,1.78-7.67,1.18-2.39,2.87-4.32,5.07-5.78,2.19-1.46,4.73-2.19,7.6-2.19,1.89,0,3.52.34,4.89,1.02,1.37.68,2.42,1.62,3.14,2.81.72,1.2,1.09,2.57,1.09,4.13h-4.41c-.04-1.32-.52-2.35-1.43-3.11-.91-.76-2.17-1.14-3.77-1.14-1.95,0-3.68.55-5.17,1.65-1.49,1.1-2.63,2.54-3.42,4.33s-1.18,3.68-1.18,5.68.53,3.72,1.6,4.97c1.06,1.25,2.63,1.88,4.69,1.88,1.58,0,2.98-.4,4.2-1.2s2.13-1.96,2.75-3.47h4.48c-.88,2.68-2.32,4.74-4.33,6.2s-4.51,2.19-7.52,2.19c-2.24,0-4.11-.46-5.61-1.37Z"/><path class="cls-4" d="M106.13,209.28c-1.49-.91-2.61-2.14-3.34-3.7-.74-1.56-1.1-3.3-1.1-5.23,0-2.72.6-5.28,1.79-7.67,1.2-2.39,2.9-4.32,5.12-5.78,2.22-1.46,4.78-2.19,7.7-2.19,2.19,0,4.04.46,5.53,1.37,1.49.91,2.6,2.14,3.34,3.7.73,1.56,1.1,3.3,1.1,5.23,0,2.72-.6,5.28-1.81,7.67-1.21,2.39-2.92,4.32-5.13,5.78s-4.77,2.19-7.67,2.19c-2.19,0-4.04-.46-5.53-1.37ZM117.47,205.24c1.48-1.1,2.63-2.53,3.44-4.31.81-1.78,1.22-3.65,1.22-5.63s-.55-3.72-1.65-4.99-2.71-1.89-4.84-1.89c-1.93,0-3.64.55-5.13,1.65-1.49,1.1-2.64,2.53-3.44,4.29-.8,1.77-1.2,3.64-1.2,5.61,0,2.08.55,3.76,1.65,5.02,1.1,1.26,2.71,1.89,4.84,1.89,1.93,0,3.64-.55,5.12-1.65Z"/><path class="cls-4" d="M132.82,210.21h-4.41l13.43-25.11h4.61l4.54,25.11h-4.15l-.92-5.5h-10.27l-2.83,5.5ZM137.53,201.06h7.8l-1.48-8.98c-.13-1.01-.2-1.67-.2-1.97s.03-.6.1-.89h-.59c-.15,1.05-.52,2.11-1.09,3.16l-4.54,8.69Z"/><path class="cls-4" d="M161.44,209.28c-1.5-.91-2.62-2.14-3.34-3.7-.72-1.56-1.09-3.3-1.09-5.23,0-2.72.59-5.28,1.78-7.67,1.18-2.39,2.87-4.32,5.07-5.78,2.19-1.46,4.73-2.19,7.6-2.19,1.89,0,3.52.34,4.89,1.02,1.37.68,2.42,1.62,3.14,2.81.72,1.2,1.09,2.57,1.09,4.13h-4.41c-.04-1.32-.52-2.35-1.43-3.11-.91-.76-2.17-1.14-3.77-1.14-1.95,0-3.68.55-5.17,1.65-1.49,1.1-2.63,2.54-3.42,4.33s-1.18,3.68-1.18,5.68.53,3.72,1.6,4.97c1.06,1.25,2.63,1.88,4.69,1.88,1.58,0,2.98-.4,4.2-1.2s2.13-1.96,2.75-3.47h4.48c-.88,2.68-2.32,4.74-4.33,6.2s-4.51,2.19-7.52,2.19c-2.24,0-4.11-.46-5.61-1.37Z"/><path class="cls-4" d="M188.6,210.21h-4.15l4.44-25.11h4.15l-1.88,10.66h11.35l1.91-10.66h4.15l-4.44,25.11h-4.15l1.88-10.73h-11.35l-1.91,10.73Z"/><path class="cls-4" d="M216.77,210.21h-4.15l4.44-25.11h4.15l-4.44,25.11Z"/><path class="cls-4" d="M225.27,210.21l4.44-25.11h4.97l6.06,16.49c.2.48.36.94.48,1.38.12.44.21.99.28,1.65h.66c.04-1.14.15-2.23.33-3.26l2.9-16.26h4.15l-4.44,25.11h-5l-6.06-16.55c-.22-.59-.38-1.07-.49-1.45-.11-.37-.2-.88-.26-1.51h-.62c-.04,1.16-.15,2.26-.33,3.29l-2.9,16.22h-4.15Z"/><path class="cls-4" d="M258.91,209.24c-1.53-.93-2.65-2.18-3.39-3.75-.74-1.57-1.1-3.32-1.1-5.25,0-2.7.6-5.24,1.81-7.62,1.21-2.38,2.91-4.29,5.12-5.74,2.21-1.45,4.73-2.17,7.59-2.17s5.31.72,6.98,2.16c1.67,1.44,2.6,3.37,2.8,5.81h-4.48c-.24-1.38-.84-2.43-1.79-3.16-.95-.72-2.27-1.09-3.93-1.09-1.95,0-3.68.54-5.18,1.61-1.5,1.08-2.67,2.5-3.49,4.26-.82,1.77-1.23,3.62-1.23,5.58,0,2.06.54,3.75,1.61,5.07,1.07,1.32,2.68,1.97,4.8,1.97,1.69,0,3.21-.38,4.56-1.14,1.35-.76,2.36-1.77,3.04-3.04.31-.48.54-1.01.69-1.58.11-.31.21-.55.31-.74s.22-.33.38-.44l-.23-.26c-.31.24-.59.39-.86.44s-.75.08-1.45.08h-3.59l.62-3.52h9.84l-2.4,13.49h-3.78l.69-3.72h-.59c-.24,1.34-1.09,2.36-2.55,3.08s-3.16,1.07-5.12,1.07c-2.26,0-4.15-.47-5.68-1.4Z"/><polygon class="cls-4" points="64 202.11 0 199.61 64 197.11 64 202.11 64 202.11"/><polygon class="cls-4" points="288 197.11 352 199.61 288 202.11 288 197.11 288 197.11"/><path class="cls-3" d="M174.35,40.38c-3.2-2.83-7.76-4.25-13.67-4.25h-4.29l-7.28,41.34h3.27c5.23,0,9.88-1.06,13.95-3.17,4.07-2.11,7.23-5.07,9.47-8.87,2.24-3.79,3.36-8.15,3.36-13.06,0-5.16-1.6-9.16-4.81-11.99Z"/><polygon class="cls-2" points="125.6 77.47 96.57 77.47 106.56 21.2 89.86 21.2 77.26 92.4 122.98 92.4 125.6 77.47"/><polygon class="cls-2" points="66.53 100.34 9.7 100.34 7.08 115.27 27.15 115.27 17.25 171.54 33.96 171.54 43.85 115.27 63.91 115.27 66.53 100.34"/><polygon class="cls-2" points="120 115.27 122.7 100.34 74.08 100.34 61.49 171.54 110.11 171.54 112.72 156.61 80.8 156.61 83.14 143.35 111.97 143.35 114.59 128.52 85.75 128.52 88.08 115.27 120 115.27"/><path class="cls-2" d="M177.2,100.34l-6.25,35.18c-.31,1.8-.51,3.33-.61,4.57-.09,1.25-.11,2.99-.05,5.23h-2.15c-.25-2.18-.56-3.87-.93-5.09-.37-1.21-.87-2.47-1.49-3.78l-16.14-36.11h-16.7l-12.6,71.2h16.7l6.25-35.46c.31-1.8.51-3.31.61-4.53.09-1.21.11-2.94.05-5.18h2.05c.19,1.43.42,2.74.7,3.92s.61,2.19.98,3.03c.37.84.59,1.35.65,1.54l16.24,36.67h16.8l12.6-71.2h-16.7Z"/><path class="cls-2" d="M267.16,171.54h16.7l11.02-62.31c-5.41-.93-10.86-1.65-16.32-2.15l-11.4,64.45Z"/><path class="cls-2" d="M306.79,111.09c-1.97,3.29-2.96,7.04-2.96,11.27,0,3.8.92,6.91,2.75,9.33,1.83,2.43,4.09,4.29,6.76,5.6,2.67,1.31,5.91,2.49,9.71,3.55.62.19,2.08.59,4.39,1.21,4.73,1.18,8.12,2.3,10.17,3.36,2.05,1.06,3.08,2.61,3.08,4.67,0,2.92-1.18,5.16-3.55,6.72-2.37,1.56-5.35,2.33-8.96,2.33-4.17,0-7.43-.82-9.8-2.47-2.37-1.65-3.67-4.74-3.92-9.29h-16.98c-.31,8.34,2.29,14.71,7.79,19.13,5.51,4.42,12.92,6.62,22.26,6.62,5.85,0,11.04-1.03,15.58-3.08,4.54-2.05,8.09-4.98,10.64-8.77,2.55-3.79,3.83-8.21,3.83-13.25,0-4.11-.98-7.43-2.94-9.98-1.96-2.55-4.4-4.46-7.33-5.74-2.92-1.27-6.44-2.38-10.54-3.31-5.35-1.18-9.36-2.43-12.04-3.73-2.68-1.31-4.01-3.02-4.01-5.13,0-2.36.99-4.17,2.99-5.41,1.99-1.24,4.6-1.87,7.84-1.87,7.53,0,11.54,3.24,12.04,9.71h16.7c.06-5.04-1.09-9.33-3.45-12.88s-5.68-6.24-9.94-8.07c-.94-.4-1.91-.75-2.9-1.07-2.14,1.61-4.41,3.07-6.82,4.36-9.4,5.06-19.91,7.16-30.38,6.2Z"/><path class="cls-2" d="M193.94,38.31c-.03-.1-.07-.2-.1-.3-1.36-3.73-3.41-6.84-6.14-9.35-5.44-4.98-13.55-7.46-24.31-7.46h-21l-12.6,71.2h22.12c8.77,0,16.47-1.73,23.1-5.18,6.63-3.45,11.76-8.31,15.4-14.56,1.01-1.73,1.86-3.55,2.59-5.43.24-.62.47-1.24.68-1.87,1.46-4.43,2.19-9.25,2.19-14.49,0-4.76-.64-8.94-1.92-12.56ZM175.8,65.43c-2.24,3.79-5.4,6.75-9.47,8.87-4.08,2.12-8.73,3.17-13.95,3.17h-3.27l7.28-41.34h4.29c5.91,0,10.47,1.42,13.67,4.25,3.2,2.83,4.81,6.83,4.81,11.99s-1.12,9.27-3.36,13.06Z"/><path class="cls-2" d="M249.56,106.41l-5.17,29.11c-.31,1.8-.51,3.33-.61,4.57-.09,1.25-.11,2.99-.05,5.23h-2.15c-.25-2.18-.56-3.87-.93-5.09-.37-1.21-.87-2.47-1.49-3.78l-12.38-27.69-.22-.48-3.55-7.94h-16.7l-12.6,71.2h16.7l6.25-35.46c.31-1.8.51-3.31.61-4.53.09-1.21.11-2.94.05-5.18h2.05c.19,1.43.42,2.74.7,3.92.28,1.18.61,2.19.98,3.03s.59,1.35.65,1.54l16.24,36.67h16.8l11.54-65.21c-5.57-.19-11.16-.16-16.72.08Z"/></g></svg>